<?xml version="1.0" encoding="UTF-8" standalone="no"?><!DOCTYPE svg PUBLIC "-//W3C//DTD SVG 1.1//EN" "http://www.w3.org/Graphics/SVG/1.1/DTD/svg11.dtd"><svg width="100%" height="100%" viewBox="0 0 400 400" version="1.1" xmlns="http://www.w3.org/2000/svg" xmlns:xlink="http://www.w3.org/1999/xlink" xml:space="preserve" style="fill-rule:evenodd;clip-rule:evenodd;stroke-linejoin:round;stroke-miterlimit:1.41421;"><rect x="-12" y="-16" width="433.333" height="434.667" style="fill:#ec1f27;"/><g><path d="M296.788,309.972c-3.142,0.076 -30.858,0.775 -36.564,2.189c-4.05,1.008 -11.41,-0.776 -13.908,-1.548c-1.275,-0.403 -2.636,0.315 -3.032,1.596c-0.399,1.279 0.316,2.638 1.595,3.035c0.334,0.103 6.709,2.06 12.421,2.06c1.444,0 2.843,-0.124 4.094,-0.436c4.389,-1.087 27.121,-1.846 35.513,-2.046c1.337,-0.032 2.398,-1.144 2.364,-2.483c-0.031,-1.341 -1.156,-2.387 -2.483,-2.367Z" style="fill:#241f1f;fill-rule:nonzero;"/><path d="M292.48,229.433l-89.041,3.982" style="fill:#ed1f27;fill-rule:nonzero;"/><path d="M218.383,232.069l12.385,-26.607" style="fill:#ed1f27;fill-rule:nonzero;"/><path d="M230.768,232.192l20.779,-26.128" style="fill:#ed1f27;fill-rule:nonzero;"/><path d="M251.547,231.262l14.387,-20.844" style="fill:#ed1f27;fill-rule:nonzero;"/><path d="M268.229,230.517l8.116,-14.73" style="fill:#ed1f27;fill-rule:nonzero;"/><path d="M268.229,230.517l9.93,13.345" style="fill:#ed1f27;fill-rule:nonzero;"/><path d="M251.547,231.262l13.038,21.282" style="fill:#ed1f27;fill-rule:nonzero;"/><path d="M230.768,232.192l9.465,16.916" style="fill:#ed1f27;fill-rule:nonzero;"/><path d="M218.383,232.069l6.067,19.257" style="fill:#ed1f27;fill-rule:nonzero;"/><path d="M118.016,233.415l78.183,0" style="fill:#ed1f27;fill-rule:nonzero;"/><path d="M178.825,233.415l-9.457,-25.283" style="fill:#ed1f27;fill-rule:nonzero;"/><path d="M162.536,233.415l-5.428,-25.613" style="fill:#ed1f27;fill-rule:nonzero;"/><path d="M146.974,233.415l-12.526,-16.233" style="fill:#ed1f27;fill-rule:nonzero;"/><path d="M146.974,233.415l-12.526,18.238" style="fill:#ed1f27;fill-rule:nonzero;"/><path d="M162.536,233.415l-13.816,21.146" style="fill:#ed1f27;fill-rule:nonzero;"/><path d="M178.825,233.415l-10.641,18.238" style="fill:#ed1f27;fill-rule:nonzero;"/><path d="M222.261,207.503l1.628,0.379" style="fill:#ed1f27;fill-rule:nonzero;"/><path d="M278.582,240.367l-5.677,-7.63l14.229,-0.637c-2.009,2.244 -4.884,5.183 -8.552,8.267Zm-22.817,-6.864l11.288,-0.504l7.727,10.386c-2.773,2.068 -5.891,4.107 -9.311,5.957l-9.704,-15.839Zm-49.901,-8.148l0,-2.547c2.534,-2.248 11.055,-9.437 20.33,-13.263l-9.709,20.86l-10.621,0.474l0,-5.524Zm-6.046,-6.045c-0.75,0 -1.461,0.155 -2.125,0.405c-1.886,-2.305 -9.695,-10.626 -25.364,-13.536c-7.915,-12.677 -10.534,-24.205 -7.771,-34.267c2.265,-8.254 7.761,-13.81 11.643,-16.861c-0.723,7.571 -0.112,14.483 1.728,20.74c0.023,0.149 0.078,0.285 0.13,0.428c1.474,4.837 3.672,9.288 6.685,13.283c9.521,12.624 24.112,17.582 31.914,19.418c-7.597,4.466 -13.409,9.685 -14.635,10.819c-0.686,-0.27 -1.425,-0.429 -2.205,-0.429Zm-10.442,35.31c1.761,-1.272 3.213,-2.587 4.398,-3.851l0,6.971c-0.87,-0.758 -2.326,-1.903 -4.398,-3.12Zm-67.317,-18.778l20.306,0l-8.55,12.449c-6.072,-4.313 -9.79,-9.258 -11.756,-12.449Zm11.928,-15.286l8.051,10.434l-18.981,0c2.409,-2.794 6.157,-6.722 10.93,-10.434Zm59.787,4.799l0,5.635l-13.267,0l-7.373,-19.714c12.581,2.774 18.954,9.308 20.64,11.304l0,2.775Zm-26.16,-14.99l7.714,20.625l-10.826,0l-4.445,-20.964c0.337,-0.01 0.671,-0.029 1.01,-0.029c2.325,0 4.492,0.142 6.547,0.368Zm-12.413,0.145l4.344,20.48l-11.379,0l-10.237,-13.267c5.005,-3.316 10.852,-6.108 17.272,-7.213Zm-10.594,43.476l-0.655,-0.298c-2.192,-0.828 -4.185,-1.783 -6.027,-2.812l10.326,-15.034l9.803,0l-11.366,17.393c-0.024,0.042 -0.027,0.088 -0.05,0.131c-0.672,0.203 -1.349,0.408 -2.031,0.62Zm9.117,-2.648l10.126,-15.496l10.752,0l-7.837,13.435c-4.417,0.146 -8.668,0.926 -13.041,2.061Zm30.578,0.821c-3.234,-1.278 -7.242,-2.332 -12.006,-2.739l7.921,-13.578l13.557,0l0,6.602c-0.603,1.305 -3.106,5.976 -9.461,9.703c-0.004,0.004 -0.007,0.009 -0.011,0.012Zm-41.78,-64.806c0,-8.625 4.188,-15.371 12.442,-20.051c2.629,-1.49 5.276,-2.531 7.498,-3.244c-1.014,1.979 -1.906,4.128 -2.564,6.502c-2.905,10.503 -0.768,22.196 6.315,34.8c-1.649,-0.13 -3.352,-0.214 -5.146,-0.214c-4.039,0 -7.893,0.627 -11.526,1.688c-4.637,-5.947 -7.019,-12.491 -7.019,-19.481Zm18.821,-44.079c3.951,-4.858 9.147,-7.275 13.912,-6.452c2.278,0.395 4.223,1.498 5.734,3.186c0.022,0.028 0.049,0.048 0.071,0.075c0.578,0.657 1.096,1.395 1.537,2.222c-0.891,0.534 -1.917,1.219 -2.763,1.968c-1.432,1.275 -2.199,3.019 -2.583,4.165c-1.992,1.167 -6.724,4.287 -10.935,9.615c-1.886,0.377 -6.141,1.397 -10.822,3.597c-0.187,-4.154 0.401,-11.675 5.849,-18.376Zm45.173,-13.58c11.094,0 17.503,6.04 20.34,9.632c-5.794,-0.099 -10.272,0.812 -10.651,0.893c-0.059,0.012 -0.104,0.053 -0.162,0.071c-0.086,0.025 -0.171,0.035 -0.254,0.07c-0.051,0.02 -0.088,0.062 -0.137,0.087c-0.023,0.012 -0.043,0.029 -0.063,0.04c-0.145,0.078 -0.28,0.156 -0.403,0.257c-0.047,0.04 -0.108,0.054 -0.154,0.099c-1.331,1.281 -2.636,2.379 -3.921,3.36c-2.032,-5.2 -5.808,-8.143 -10.75,-8.143c-6.66,0 -10.535,3.378 -12.563,6.049c-0.504,-1.313 -1.121,-2.529 -1.86,-3.62c2.145,-2.716 8.305,-8.795 20.578,-8.795Zm44.536,34.177c-0.11,3.351 -1.368,6.445 -3.633,9.139c-2.725,-16.63 -13.998,-23.603 -16.373,-24.894c-0.473,-1.1 -1.12,-2.108 -1.952,-3.022c-0.273,-0.3 -0.558,-0.584 -0.857,-0.85c5.26,0.262 11.351,1.509 15.793,5.312c4.63,3.966 7.191,9.184 7.022,14.315Zm7.331,24.744c0,5.945 -3.536,11.642 -9.015,14.588c-2.621,-0.411 -5.354,-0.7 -8.2,-0.849c3.726,-4.252 6.866,-11.042 6.866,-21.879c0,-0.435 -0.043,-0.829 -0.055,-1.255c1.557,-1.288 2.917,-2.694 4.032,-4.213c2.41,2.262 6.372,6.986 6.372,13.608Zm18.803,30.674c4.357,2.908 7.697,5.786 9.936,7.954l-14.682,0.658l4.746,-8.612Zm-10.433,-5.788c2.252,1.021 4.365,2.101 6.31,3.221l-6.3,11.434l-10.447,0.466l10.437,-15.121Zm-14.243,-4.75c3.451,0.753 6.658,1.737 9.658,2.855l-11.932,17.289l-14.252,0.637l16.526,-20.781Zm-53.483,-24.633c5.027,0 9.264,-1.317 12.555,-2.916c12.092,-5.875 19.464,-19.104 20.289,-26.647c4.339,3.539 11.312,11.468 11.312,25.92c0,10.487 -3.278,18.077 -9.48,21.951c-0.014,0.008 -0.019,0.024 -0.033,0.031c-1.202,0.156 -2.402,0.406 -3.601,0.708c-0.061,0.017 -0.12,0.024 -0.18,0.047c-2.095,0.537 -4.173,1.265 -6.202,2.134l-0.877,-0.203c-0.045,-0.012 -0.088,0.003 -0.13,-0.004c-0.052,-0.011 -0.096,-0.039 -0.146,-0.045c-0.219,-0.025 -22.002,-2.68 -33.94,-18.543c-1.357,-1.802 -2.532,-3.712 -3.539,-5.722c5.136,2.371 9.825,3.289 13.972,3.289Zm-18.262,-23.636c3.744,3.13 9.715,7.132 16.001,7.363c4.089,0.134 7.695,-1.265 10.762,-4.202c8.235,-7.884 10.644,-14.735 11.338,-18.388c1.987,0.338 4.871,1.153 6.639,3.101c1.258,1.385 1.775,3.168 1.579,5.447c-0.465,5.422 -6.753,17.756 -17.623,23.037c-8.378,4.073 -17.482,3.062 -27.065,-2.97c-1.147,-4.129 -1.697,-8.593 -1.631,-13.388Zm10.303,-14.591c1.094,-1.764 3.835,-4.981 9.293,-4.981c3.765,0 5.641,2.962 6.586,5.99c-3.298,1.745 -6.43,2.459 -9.354,2.048c-2.724,-0.383 -4.914,-1.691 -6.525,-3.057Zm-8.013,2.009c0.531,-0.472 1.243,-0.949 1.917,-1.359c1.93,2.431 5.884,6.331 11.88,7.2c0.805,0.116 1.616,0.176 2.435,0.176c4.229,0 8.628,-1.594 13.14,-4.688c-1.41,2.959 -3.883,6.729 -8.251,10.91c-2.113,2.021 -4.492,2.955 -7.22,2.859c-6.726,-0.241 -13.581,-6.511 -15.783,-8.709c0.141,-1.24 0.306,-2.492 0.519,-3.768c0.084,-0.396 0.533,-1.88 1.363,-2.621Zm38.891,82.26l10.514,-22.586c1.505,-0.307 3,-0.491 4.46,-0.491c3.556,0 6.936,0.262 10.154,0.708l-17.517,22.027l-7.611,0.342Zm72.818,0.05c0.095,-0.278 0.144,-0.568 0.134,-0.859c0,-0.01 0.006,-0.018 0.004,-0.025c-0.002,-0.047 -0.027,-0.084 -0.031,-0.131c-0.023,-0.238 -0.08,-0.47 -0.174,-0.696c-0.042,-0.096 -0.096,-0.182 -0.15,-0.273c-0.053,-0.093 -0.085,-0.195 -0.152,-0.28c-0.663,-0.853 -13.731,-17.311 -38.514,-23.44c4.568,-4.06 7.355,-9.865 7.355,-15.891c0,-9.278 -5.898,-15.46 -8.773,-17.926c0.869,-2.114 1.36,-4.351 1.437,-6.657c0.216,-6.614 -2.958,-13.232 -8.715,-18.161c-4.155,-3.555 -9.308,-5.279 -14.218,-6.037c-0.023,-0.057 -0.019,-0.115 -0.048,-0.169c-0.317,-0.605 -7.949,-14.822 -26.403,-14.822c-13.483,0 -20.832,6.442 -23.921,10.092c-1.883,-1.46 -4.073,-2.471 -6.518,-2.894c-6.511,-1.129 -13.426,1.933 -18.498,8.173c-7.626,9.381 -7.242,19.949 -6.742,23.994c-6.822,4.363 -13.165,11.536 -13.165,23.145c0,7.599 2.371,14.712 7.051,21.191c-16.989,7.035 -28.101,22.633 -28.694,23.48c-0.081,0.115 -0.136,0.241 -0.195,0.365c-0.019,0.041 -0.044,0.076 -0.062,0.119c-0.107,0.264 -0.154,0.539 -0.165,0.821c-0.001,0.031 -0.017,0.055 -0.017,0.086c0,0.034 0.017,0.063 0.02,0.096c0.009,0.276 0.05,0.549 0.155,0.811c0.002,0.004 0.011,0.023 0.014,0.029c0.001,0.005 0.004,0.012 0.005,0.016c0.357,0.873 5.964,13.973 21.7,21.765c-9.42,2.732 -20.239,5.213 -34.331,5.213c-1.339,0 -2.425,1.087 -2.425,2.426c0,1.34 1.086,2.426 2.425,2.426c18.221,0 31.044,-3.939 42.358,-7.416c8.211,-2.522 15.3,-4.701 22.673,-4.701c15.286,0 22.952,7.818 23.072,7.941l5.093,5.091c0.473,0.473 1.094,0.71 1.713,0.71c0.622,0 1.244,-0.237 1.718,-0.71c0.945,-0.946 0.945,-2.483 -0.003,-3.428l-1.153,-1.153l0,-37.176c0,-0.659 0.537,-1.197 1.194,-1.197c0.66,0 1.194,0.538 1.194,1.197l0,35.374c0,1.341 1.086,2.425 2.427,2.425c1.339,0 2.425,-1.084 2.425,-2.425l0,-9.956c1.637,1.747 3.776,3.6 6.548,5.286c1.147,0.692 2.637,0.333 3.334,-0.814c0.694,-1.144 0.331,-2.635 -0.813,-3.332c-5.997,-3.646 -8.47,-8.204 -9.069,-9.477l0,-6.7l10.978,-0.493l5.295,16.813c0.326,1.036 1.283,1.695 2.313,1.695c0.24,0 0.486,-0.035 0.73,-0.111c1.276,-0.401 1.984,-1.762 1.583,-3.044l-4.906,-15.576l7.527,-0.337l8.731,15.609c0.444,0.794 1.27,1.242 2.121,1.242c0.401,0 0.807,-0.1 1.181,-0.309c1.171,-0.653 1.586,-2.132 0.933,-3.301l-7.543,-13.484l15.422,-0.688l10.872,17.745c-0.615,0.279 -1.223,0.563 -1.853,0.824c-1.238,0.515 -1.825,1.933 -1.31,3.171c0.387,0.931 1.29,1.494 2.241,1.494c0.307,0 0.625,-0.058 0.925,-0.184c1.603,-0.666 3.131,-1.388 4.624,-2.134c0.041,-0.022 0.086,-0.032 0.126,-0.056c0.01,-0.005 0.016,-0.016 0.026,-0.023c17.924,-9.009 28.115,-23.104 28.576,-23.75c0.085,-0.118 0.126,-0.254 0.188,-0.383c0.039,-0.082 0.089,-0.156 0.12,-0.246Z" style="fill:#fff;fill-rule:nonzero;"/><path d="M142.626,324.062c-14.255,-18.351 -38.906,-13.645 -39.948,-13.44c-1.313,0.264 -2.166,1.543 -1.901,2.857c0.263,1.311 1.549,2.16 2.854,1.899c0.228,-0.042 22.733,-4.343 35.164,11.66c1.068,1.374 2.294,2.693 3.638,3.919c0.466,0.426 1.052,0.635 1.634,0.635c0.66,0 1.316,-0.267 1.795,-0.793c0.9,-0.988 0.83,-2.523 -0.159,-3.423c-1.144,-1.043 -2.179,-2.16 -3.077,-3.314Z" style="fill:#fff;fill-rule:nonzero;"/><path d="M245.389,309.277l-0.66,-0.647c-1.574,-1.572 -18.754,-18.752 -31.792,-31.788c-0.948,-0.946 -2.482,-0.946 -3.43,0c-0.947,0.947 -0.947,2.482 0,3.428c13.037,13.042 30.222,30.223 31.794,31.79l0.696,0.685c2.494,2.441 9.119,8.921 9.146,13.795c0.007,1.205 -0.408,2.184 -1.31,3.084c-1.304,1.306 -2.748,1.89 -4.254,1.914c-3.348,-0.036 -6.488,-2.903 -7.162,-3.559c-1.396,-1.457 -2.813,-2.716 -3.907,-3.682c-0.483,-0.427 -0.875,-0.772 -1.12,-1.015l-10.483,-10.483l-3.43,3.431l10.485,10.483c0.292,0.293 0.757,0.708 1.333,1.218c2.259,1.996 7.55,6.673 7.658,10.201c0.023,0.876 -0.303,1.622 -1.03,2.352c-1.12,1.118 -2.264,1.648 -3.491,1.575c-2.496,-0.113 -5.021,-2.524 -5.784,-3.439c-0.004,-0.006 -0.009,-0.007 -0.013,-0.012c-0.673,-0.888 -1.426,-1.787 -2.348,-2.709l-12.614,-12.619l-3.428,3.431l12.614,12.62c2.054,2.052 3.301,3.924 3.7,5.56c0.401,1.641 -0.06,3.012 -1.498,4.446c-2.39,2.391 -5.953,0.666 -7.159,-0.032c-0.584,-0.991 -1.279,-1.94 -2.129,-2.788c-2.93,-2.932 -10.447,-11.394 -10.522,-11.479c-0.891,-1.004 -2.424,-1.096 -3.423,-0.204c-1.003,0.889 -1.094,2.422 -0.203,3.425c0.312,0.352 7.685,8.656 10.72,11.688c1.249,1.25 2.1,2.817 2.334,4.3c0.25,1.583 -0.2,2.922 -1.368,4.094c-0.485,0.484 -1.037,0.658 -1.756,0.692c-1.626,-0.012 -5.458,-1.166 -12.813,-8.757c-0.932,-0.963 -2.467,-0.982 -3.429,-0.054c-0.963,0.933 -0.986,2.469 -0.055,3.431c6.64,6.851 11.958,10.198 16.26,10.23c0.021,0 0.043,0 0.064,0c1.99,0 3.772,-0.728 5.157,-2.114c1.852,-1.852 2.821,-4.178 2.836,-6.667c0.81,0.177 1.652,0.291 2.512,0.291c2.188,0 4.465,-0.683 6.404,-2.625c1.913,-1.913 2.931,-4.095 3.035,-6.413c0.838,0.281 1.713,0.503 2.652,0.55c0.145,0.007 0.291,0.011 0.434,0.011c2.45,0 4.772,-1.033 6.741,-3.004c1.669,-1.666 2.515,-3.718 2.447,-5.929c-0.02,-0.608 -0.116,-1.208 -0.261,-1.807c0.636,0.123 1.287,0.203 1.956,0.212c0.049,0 0.099,0 0.15,0c2.842,0 5.406,-1.12 7.619,-3.334c1.825,-1.823 2.744,-4.025 2.73,-6.541c-0.039,-6.897 -7.442,-14.143 -10.605,-17.236Z" style="fill:#fff;fill-rule:nonzero;"/><path d="M196.203,346.79c-2.622,6.537 -11.125,14.879 -15.161,14.879c-0.511,0 -0.749,-0.153 -0.946,-0.38c-1.855,-2.131 1.245,-8.013 7.54,-14.297c2.822,-2.819 5.607,-4.503 7.443,-4.503c0.626,0 1.109,0.193 1.566,0.634c0.36,0.342 0.373,1.636 -0.442,3.667Zm-30.599,7.692c-3.037,-3.035 2.535,-11.329 9.402,-18.204c1.03,-1.03 2.393,-2.39 3.872,-3.692c0.062,-0.061 0.14,-0.093 0.197,-0.164c0.008,-0.009 0.014,-0.017 0.022,-0.027c2.438,-2.12 5.162,-4.033 7.24,-4.033c0.724,0 1.296,0.25 1.856,0.812c0.896,0.902 1.311,1.872 1.307,3.062c-0.018,4.75 -6.595,11.267 -9.403,14.051l-0.679,0.672c-0.343,0.345 -0.716,0.728 -1.115,1.137c-2.694,2.765 -7.202,7.393 -10.489,7.393c-0.821,-0.003 -1.524,-0.321 -2.21,-1.007Zm-11.154,-9.269c-2.821,-2.821 2.458,-10.64 8.942,-17.135c6.486,-6.476 10.464,-8.361 12.901,-6.106c0.919,0.85 2.804,2.61 -0.78,7.131c-1.331,1.184 -2.647,2.454 -3.937,3.745c-2.928,2.929 -6.532,6.975 -8.965,11.154c-2.035,1.711 -5.526,3.844 -8.161,1.211Zm-8.9,-10.04c-1.237,-1.233 0.153,-4.066 1.092,-5.645c1.824,-3.07 4.635,-6.065 6.144,-7.576l0.623,-0.624c2.044,-2.061 5.471,-5.505 7.542,-5.505c0.262,0 0.586,0.051 1.001,0.447c0.429,0.407 0.623,0.884 0.63,1.547c0.038,2.986 -3.585,7.959 -7.191,11.565l-0.864,0.881c-1.88,1.928 -5.38,5.522 -7.674,5.52c-0.324,0 -0.764,-0.068 -1.303,-0.61Zm49.529,2.466c-0.742,0 -1.479,0.135 -2.213,0.323c0.896,-1.868 1.477,-3.797 1.484,-5.71c0.008,-2.491 -0.906,-4.678 -2.717,-6.498c-1.461,-1.467 -3.291,-2.243 -5.296,-2.243c-1.288,0 -2.581,0.314 -3.869,0.85c-0.072,-2.762 -1.584,-4.752 -2.883,-5.951c-3.865,-3.574 -8.33,-2.406 -12.185,-0.017c0.015,-0.212 0.035,-0.425 0.034,-0.635c-0.023,-1.964 -0.763,-3.694 -2.136,-5c-1.229,-1.17 -2.732,-1.787 -4.347,-1.787c-4.092,0 -7.915,3.847 -10.983,6.939l-0.61,0.611c-1.671,1.672 -4.791,5.004 -6.886,8.529c-3.671,6.171 -2.217,9.69 -0.353,11.554c1.329,1.327 2.966,2.03 4.734,2.03c0.815,0 1.618,-0.186 2.408,-0.447c-0.871,3.128 -0.594,6.103 1.76,8.456c1.78,1.779 3.928,2.661 6.242,2.658c0.887,0 1.801,-0.146 2.724,-0.403c-0.349,2.592 0.193,5.021 2.188,7.013c1.609,1.611 3.507,2.425 5.639,2.428c2.446,0 4.86,-1.126 7.091,-2.682c-0.519,2.459 -0.203,4.822 1.529,6.817c1.165,1.338 2.757,2.047 4.608,2.047c7.116,0 16.832,-10.874 19.663,-17.925c1.991,-4.958 0.716,-7.621 -0.705,-8.978c-1.354,-1.297 -3.056,-1.979 -4.921,-1.979Z" style="fill:#241f1f;fill-rule:nonzero;"/><path d="M181.25,291.041c0,-10.576 16.616,-22.631 24.605,-28.422c1.73,-1.258 3.098,-2.247 4.012,-3.005c5.483,-4.539 17.008,-7.248 30.831,-7.248c10.667,0 19.479,4.92 24.991,9.046c6.916,5.184 28.759,5.267 31.163,5.271c1.34,-0.004 2.423,-1.09 2.419,-2.429c-0.004,-1.339 -1.088,-2.422 -2.425,-2.422c-0.097,-0.001 -0.153,0 -0.231,0c-8.71,0 -23.821,-1.156 -28.017,-4.303c-6.104,-4.569 -15.898,-10.014 -27.9,-10.014c-15.141,0 -27.503,3.046 -33.922,8.361c-0.798,0.657 -2.175,1.659 -3.772,2.816c-9.273,6.726 -26.509,19.229 -26.604,32.241c-0.111,1.372 -0.899,13.227 4.457,19.092c2.03,2.225 4.636,3.352 7.741,3.352c2.734,0 4.941,-0.863 6.566,-2.569c3.493,-3.666 3.175,-10.167 2.924,-15.388c-0.099,-2.034 -0.235,-4.816 0.027,-5.421c2.826,-3.634 8.946,-9.016 13.108,-9.016c1.339,0 2.425,-1.086 2.425,-2.426c0,-1.338 -1.086,-2.425 -2.425,-2.425c-6.95,0 -14.585,7.861 -16.936,10.889c-1.378,1.768 -1.239,4.647 -1.044,8.635c0.197,4.07 0.468,9.646 -1.591,11.805c-0.435,0.457 -1.226,1.065 -3.054,1.065c-1.731,0 -3.052,-0.562 -4.156,-1.767c-3.427,-3.747 -3.473,-12.459 -3.201,-15.501c0.005,-0.071 0.009,-0.145 0.009,-0.217Z" style="fill:#241f1f;fill-rule:nonzero;"/></g></svg>