<?xml version="1.0" encoding="UTF-8" standalone="no"?><!DOCTYPE svg PUBLIC "-//W3C//DTD SVG 1.1//EN" "http://www.w3.org/Graphics/SVG/1.1/DTD/svg11.dtd"><svg width="100%" height="100%" viewBox="0 0 834 805" version="1.1" xmlns="http://www.w3.org/2000/svg" xmlns:xlink="http://www.w3.org/1999/xlink" xml:space="preserve" style="fill-rule:evenodd;clip-rule:evenodd;stroke-linejoin:round;stroke-miterlimit:1.41421;"><g><path d="M729.462,611.688c-10.154,0.245 -99.725,2.504 -118.166,7.074c-13.088,3.259 -36.875,-2.508 -44.946,-5.004c-4.121,-1.3 -8.521,1.021 -9.8,5.159c-1.287,4.133 1.021,8.525 5.154,9.808c1.079,0.333 21.684,6.658 40.142,6.658c4.667,0 9.187,-0.4 13.233,-1.408c14.183,-3.512 87.646,-5.967 114.767,-6.612c4.321,-0.105 7.75,-3.696 7.641,-8.026c-0.099,-4.333 -3.737,-7.712 -8.025,-7.649Z" style="fill:#241f1f;fill-rule:nonzero;"/><path d="M715.542,351.404l-287.763,12.871" style="fill:#ed1f27;fill-rule:nonzero;"/><path d="M476.075,359.925l40.025,-85.987" style="fill:#ed1f27;fill-rule:nonzero;"/><path d="M516.1,360.321l67.154,-84.438" style="fill:#ed1f27;fill-rule:nonzero;"/><path d="M583.254,357.317l46.496,-67.363" style="fill:#ed1f27;fill-rule:nonzero;"/><path d="M637.167,354.908l26.229,-47.604" style="fill:#ed1f27;fill-rule:nonzero;"/><path d="M637.167,354.908l32.091,43.129" style="fill:#ed1f27;fill-rule:nonzero;"/><path d="M583.254,357.317l42.138,68.779" style="fill:#ed1f27;fill-rule:nonzero;"/><path d="M516.1,360.321l30.592,54.671" style="fill:#ed1f27;fill-rule:nonzero;"/><path d="M476.075,359.925l19.608,62.233" style="fill:#ed1f27;fill-rule:nonzero;"/><path d="M151.712,364.275l252.671,0" style="fill:#ed1f27;fill-rule:nonzero;"/><path d="M348.233,364.275l-30.562,-81.708" style="fill:#ed1f27;fill-rule:nonzero;"/><path d="M295.592,364.275l-17.542,-82.775" style="fill:#ed1f27;fill-rule:nonzero;"/><path d="M245.3,364.275l-40.483,-52.463" style="fill:#ed1f27;fill-rule:nonzero;"/><path d="M245.3,364.275l-40.483,58.942" style="fill:#ed1f27;fill-rule:nonzero;"/><path d="M295.592,364.275l-44.65,68.338" style="fill:#ed1f27;fill-rule:nonzero;"/><path d="M348.233,364.275l-34.387,58.942" style="fill:#ed1f27;fill-rule:nonzero;"/><path d="M488.608,280.533l5.263,1.225" style="fill:#ed1f27;fill-rule:nonzero;"/><path d="M670.625,386.742l-18.346,-24.659l45.983,-2.058c-6.491,7.25 -15.783,16.75 -27.637,26.717Zm-73.737,-22.184l36.479,-1.629l24.971,33.567c-8.963,6.683 -19.038,13.271 -30.092,19.25l-31.358,-51.188Zm-161.271,-26.333l0,-8.229c8.191,-7.267 35.729,-30.5 65.704,-42.863l-31.379,67.413l-34.325,1.533l0,-17.854Zm-19.538,-19.533c-2.425,0 -4.721,0.5 -6.867,1.308c-6.095,-7.45 -31.333,-34.342 -81.97,-43.746c-25.579,-40.971 -34.046,-78.225 -25.117,-110.741c7.321,-26.676 25.083,-44.634 37.629,-54.492c-2.337,24.466 -0.362,46.804 5.583,67.025c0.076,0.483 0.255,0.921 0.421,1.383c4.763,15.634 11.867,30.017 21.604,42.929c30.771,40.796 77.926,56.821 103.138,62.755c-24.55,14.433 -43.333,31.3 -47.296,34.962c-2.216,-0.871 -4.604,-1.383 -7.125,-1.383Zm-33.746,114.112c5.692,-4.112 10.384,-8.362 14.213,-12.446l0,22.529c-2.813,-2.449 -7.517,-6.149 -14.213,-10.083Zm-217.554,-60.687l65.625,0l-27.633,40.233c-19.621,-13.937 -31.638,-29.921 -37.992,-40.233Zm38.55,-49.4l26.017,33.72l-61.342,0c7.788,-9.029 19.9,-21.724 35.325,-33.72Zm193.217,15.508l0,18.212l-42.875,0l-23.829,-63.712c40.658,8.967 61.254,30.083 66.704,36.533l0,8.967Zm-84.542,-48.442l24.929,66.654l-34.987,0l-14.367,-67.749c1.092,-0.034 2.171,-0.096 3.267,-0.096c7.512,0 14.517,0.458 21.158,1.191Zm-40.117,0.467l14.038,66.187l-36.775,0l-33.083,-42.875c16.175,-10.716 35.07,-19.741 55.82,-23.312Zm-34.237,140.504l-2.117,-0.962c-7.083,-2.675 -13.525,-5.763 -19.479,-9.088l33.371,-48.587l31.683,0l-36.733,56.212c-0.079,0.134 -0.087,0.283 -0.162,0.421c-2.171,0.658 -4.359,1.321 -6.563,2.004Zm29.463,-8.558l32.724,-50.079l34.751,0l-25.33,43.42c-14.275,0.471 -28.012,2.992 -42.145,6.659Zm98.82,2.654c-10.45,-4.129 -23.404,-7.538 -38.8,-8.85l25.6,-43.883l43.813,0l0,21.337c-1.95,4.217 -10.038,19.313 -30.575,31.359c-0.013,0.012 -0.025,0.029 -0.038,0.037Zm-135.021,-209.437c0,-27.875 13.534,-49.676 40.209,-64.8c8.496,-4.817 17.05,-8.18 24.233,-10.484c-3.279,6.396 -6.162,13.342 -8.287,21.013c-9.388,33.941 -2.484,71.733 20.408,112.466c-5.329,-0.42 -10.833,-0.691 -16.629,-0.691c-13.054,0 -25.509,2.025 -37.25,5.454c-14.988,-19.221 -22.684,-40.367 -22.684,-62.958Zm60.825,-142.455c12.767,-15.7 29.559,-23.508 44.959,-20.85c7.362,1.275 13.65,4.842 18.533,10.296c0.071,0.092 0.158,0.154 0.229,0.242c1.867,2.125 3.542,4.508 4.967,7.183c-2.879,1.725 -6.196,3.938 -8.929,6.359c-4.629,4.12 -7.109,9.758 -8.35,13.462c-6.438,3.771 -21.729,13.854 -35.338,31.071c-6.095,1.221 -19.845,4.517 -34.975,11.625c-0.604,-13.425 1.296,-37.729 18.904,-59.388Zm145.988,-43.887c35.854,0 56.567,19.521 65.733,31.129c-18.725,-0.321 -33.196,2.625 -34.42,2.888c-0.192,0.037 -0.338,0.17 -0.525,0.229c-0.276,0.079 -0.551,0.112 -0.821,0.225c-0.163,0.066 -0.284,0.2 -0.442,0.283c-0.075,0.037 -0.137,0.092 -0.204,0.129c-0.467,0.25 -0.904,0.504 -1.3,0.829c-0.154,0.129 -0.35,0.175 -0.5,0.321c-4.3,4.138 -8.517,7.688 -12.671,10.859c-6.567,-16.805 -18.771,-26.317 -34.742,-26.317c-21.525,0 -34.045,10.917 -40.6,19.55c-1.629,-4.246 -3.625,-8.175 -6.012,-11.7c6.933,-8.779 26.842,-28.425 66.504,-28.425Zm143.929,110.454c-0.354,10.829 -4.421,20.829 -11.741,29.533c-8.805,-53.741 -45.238,-76.279 -52.913,-80.45c-1.529,-3.554 -3.621,-6.812 -6.308,-9.766c-0.884,-0.971 -1.804,-1.888 -2.771,-2.746c17,0.846 36.683,4.875 51.042,17.166c14.962,12.817 23.237,29.68 22.691,46.263Zm23.692,79.967c0,19.212 -11.425,37.625 -29.133,47.145c-8.471,-1.329 -17.305,-2.262 -26.501,-2.745c12.042,-13.742 22.188,-35.684 22.188,-70.709c0,-1.404 -0.137,-2.679 -0.175,-4.054c5.029,-4.162 9.425,-8.708 13.029,-13.616c7.788,7.312 20.592,22.579 20.592,43.979Zm60.767,99.129c14.083,9.4 24.875,18.7 32.112,25.708l-47.45,2.125l15.338,-27.833Zm-33.717,-18.704c7.279,3.3 14.108,6.791 20.392,10.408l-20.359,36.954l-33.762,1.504l33.729,-48.866Zm-46.029,-15.35c11.154,2.433 21.516,5.612 31.212,9.225l-38.562,55.875l-46.059,2.058l53.409,-67.158Zm-172.846,-79.609c16.246,0 29.941,-4.258 40.575,-9.425c39.079,-18.987 62.904,-61.737 65.571,-86.116c14.021,11.437 36.558,37.062 36.558,83.766c0,33.892 -10.596,58.421 -30.638,70.942c-0.045,0.025 -0.062,0.079 -0.108,0.1c-3.883,0.504 -7.762,1.313 -11.637,2.287c-0.196,0.055 -0.388,0.08 -0.58,0.155c-6.77,1.733 -13.487,4.087 -20.045,6.895l-2.834,-0.658c-0.146,-0.037 -0.283,0.013 -0.42,-0.012c-0.167,-0.034 -0.309,-0.125 -0.471,-0.146c-0.709,-0.079 -71.104,-8.659 -109.688,-59.925c-4.383,-5.825 -8.183,-11.996 -11.437,-18.492c16.6,7.663 31.754,10.629 45.154,10.629Zm-59.017,-76.387c12.1,10.117 31.396,23.05 51.713,23.796c13.212,0.433 24.866,-4.088 34.779,-13.579c26.612,-25.48 34.4,-47.621 36.642,-59.426c6.42,1.092 15.741,3.725 21.454,10.021c4.066,4.475 5.737,10.238 5.104,17.605c-1.504,17.52 -21.825,57.383 -56.954,74.449c-27.075,13.163 -56.496,9.896 -87.467,-9.6c-3.708,-13.341 -5.483,-27.77 -5.271,-43.266Zm33.296,-47.154c3.537,-5.7 12.396,-16.096 30.033,-16.096c12.167,0 18.229,9.571 21.284,19.358c-10.659,5.638 -20.779,7.946 -30.229,6.617c-8.805,-1.238 -15.88,-5.463 -21.088,-9.879Zm-25.896,6.491c1.717,-1.525 4.017,-3.066 6.196,-4.391c6.238,7.858 19.017,20.462 38.392,23.27c2.604,0.375 5.225,0.567 7.87,0.567c13.667,0 27.884,-5.15 42.467,-15.15c-4.558,9.563 -12.55,21.746 -26.667,35.259c-6.829,6.533 -14.516,9.549 -23.333,9.241c-21.737,-0.779 -43.891,-21.041 -51.008,-28.146c0.458,-4.008 0.992,-8.054 1.679,-12.179c0.271,-1.279 1.721,-6.075 4.404,-8.471Zm125.688,265.846l33.979,-72.991c4.862,-0.992 9.696,-1.588 14.412,-1.588c11.492,0 22.417,0.846 32.817,2.288l-56.612,71.187l-24.596,1.104Zm235.329,0.163c0.308,-0.9 0.467,-1.838 0.433,-2.775c0,-0.034 0.021,-0.059 0.013,-0.084c-0.005,-0.15 -0.088,-0.27 -0.1,-0.421c-0.075,-0.77 -0.259,-1.52 -0.563,-2.25c-0.133,-0.312 -0.308,-0.587 -0.483,-0.883c-0.171,-0.3 -0.275,-0.629 -0.492,-0.904c-2.141,-2.758 -44.375,-55.946 -124.466,-75.754c14.762,-13.121 23.766,-31.879 23.766,-51.354c0,-29.984 -19.058,-49.963 -28.35,-57.934c2.809,-6.833 4.396,-14.062 4.642,-21.512c0.7,-21.375 -9.558,-42.763 -28.163,-58.692c-13.429,-11.492 -30.083,-17.062 -45.95,-19.512c-0.075,-0.184 -0.062,-0.371 -0.154,-0.546c-1.025,-1.954 -25.692,-47.9 -85.329,-47.9c-43.575,0 -67.325,20.816 -77.308,32.612c-6.084,-4.716 -13.163,-7.983 -21.063,-9.35c-21.042,-3.65 -43.392,6.246 -59.783,26.413c-24.646,30.316 -23.404,64.471 -21.788,77.541c-22.046,14.1 -42.545,37.284 -42.545,74.801c0,24.558 7.662,47.545 22.787,68.483c-54.904,22.737 -90.817,73.146 -92.733,75.883c-0.263,0.371 -0.438,0.779 -0.629,1.179c-0.063,0.134 -0.142,0.246 -0.2,0.384c-0.346,0.854 -0.501,1.741 -0.534,2.654c-0.004,0.1 -0.054,0.179 -0.054,0.279c0,0.108 0.054,0.204 0.062,0.308c0.03,0.892 0.163,1.775 0.501,2.621c0.008,0.013 0.037,0.075 0.045,0.096c0.004,0.017 0.013,0.038 0.017,0.05c1.154,2.821 19.275,45.158 70.129,70.342c-30.441,8.829 -65.408,16.845 -110.95,16.845c-4.325,0 -7.837,3.513 -7.837,7.842c0,4.329 3.512,7.838 7.837,7.838c58.888,0 100.329,-12.73 136.892,-23.967c26.537,-8.15 49.446,-15.192 73.275,-15.192c49.4,0 74.175,25.267 74.562,25.663l16.459,16.454c1.529,1.529 3.537,2.296 5.537,2.296c2.008,0 4.021,-0.767 5.55,-2.296c3.054,-3.058 3.054,-8.025 -0.008,-11.079l-3.725,-3.725l0,-120.146c0,-2.129 1.733,-3.867 3.858,-3.867c2.134,0 3.859,1.738 3.859,3.867l0,114.321c0,4.333 3.508,7.837 7.841,7.837c4.329,0 7.838,-3.504 7.838,-7.837l0,-32.175c5.291,5.646 12.204,11.633 21.162,17.083c3.708,2.238 8.521,1.075 10.775,-2.629c2.242,-3.7 1.071,-8.517 -2.629,-10.771c-19.379,-11.783 -27.371,-26.512 -29.308,-30.625l0,-21.654l35.479,-1.592l17.112,54.334c1.054,3.35 4.146,5.479 7.475,5.479c0.775,0 1.571,-0.113 2.359,-0.359c4.125,-1.295 6.412,-5.695 5.116,-9.837l-15.854,-50.338l24.325,-1.091l28.217,50.446c1.433,2.566 4.104,4.012 6.854,4.012c1.296,0 2.608,-0.321 3.817,-0.996c3.783,-2.112 5.125,-6.891 3.016,-10.67l-24.379,-43.575l49.842,-2.226l35.133,57.35c-1.987,0.9 -3.95,1.817 -5.987,2.663c-4,1.662 -5.896,6.246 -4.234,10.246c1.25,3.008 4.171,4.829 7.242,4.829c0.992,0 2.021,-0.187 2.992,-0.596c5.179,-2.15 10.116,-4.483 14.941,-6.896c0.134,-0.071 0.279,-0.104 0.409,-0.179c0.033,-0.017 0.05,-0.054 0.083,-0.075c57.925,-29.116 90.862,-74.666 92.35,-76.754c0.275,-0.383 0.408,-0.821 0.608,-1.238c0.125,-0.266 0.288,-0.504 0.388,-0.795Z" style="fill:#fff;fill-rule:nonzero;"/><path d="M231.246,657.225c-46.067,-59.308 -125.734,-44.1 -129.1,-43.438c-4.246,0.855 -7,4.988 -6.146,9.234c0.85,4.237 5.008,6.983 9.225,6.137c0.737,-0.133 73.467,-14.033 113.642,37.684c3.45,4.441 7.412,8.704 11.758,12.666c1.504,1.375 3.4,2.05 5.279,2.05c2.134,0 4.254,-0.862 5.8,-2.562c2.909,-3.192 2.683,-8.154 -0.512,-11.063c-3.696,-3.371 -7.042,-6.979 -9.946,-10.708Z" style="fill:#fff;fill-rule:nonzero;"/><path d="M563.354,609.442l-2.133,-2.092c-5.088,-5.079 -60.608,-60.6 -102.746,-102.729c-3.062,-3.059 -8.021,-3.059 -11.083,0c-3.063,3.058 -3.063,8.021 0,11.079c42.133,42.146 97.671,97.671 102.75,102.737l2.25,2.213c8.058,7.887 29.471,28.829 29.558,44.583c0.021,3.892 -1.321,7.059 -4.233,9.967c-4.217,4.221 -8.884,6.108 -13.75,6.183c-10.821,-0.116 -20.967,-9.379 -23.146,-11.5c-4.513,-4.708 -9.092,-8.779 -12.625,-11.9c-1.563,-1.379 -2.829,-2.495 -3.621,-3.279l-33.879,-33.879l-11.083,11.088l33.883,33.879c0.946,0.945 2.446,2.287 4.308,3.937c7.3,6.45 24.4,21.563 24.75,32.967c0.075,2.829 -0.979,5.242 -3.329,7.6c-3.621,3.612 -7.317,5.325 -11.283,5.092c-8.067,-0.367 -16.225,-8.159 -18.692,-11.117c-0.012,-0.017 -0.029,-0.021 -0.042,-0.038c-2.175,-2.871 -4.608,-5.775 -7.587,-8.754l-40.767,-40.783l-11.079,11.087l40.767,40.788c6.637,6.629 10.666,12.679 11.958,17.966c1.296,5.305 -0.196,9.734 -4.842,14.371c-7.725,7.725 -19.237,2.15 -23.137,-0.104c-1.888,-3.204 -4.134,-6.271 -6.879,-9.012c-9.471,-9.475 -33.763,-36.821 -34.005,-37.096c-2.879,-3.246 -7.833,-3.542 -11.062,-0.658c-3.242,2.87 -3.537,7.824 -0.658,11.066c1.008,1.138 24.837,27.975 34.645,37.775c4.038,4.038 6.788,9.104 7.542,13.896c0.809,5.117 -0.646,9.442 -4.421,13.229c-1.566,1.567 -3.35,2.129 -5.675,2.238c-5.254,-0.038 -17.637,-3.767 -41.408,-28.3c-3.012,-3.113 -7.971,-3.175 -11.079,-0.175c-3.113,3.016 -3.188,7.979 -0.179,11.087c21.458,22.142 38.646,32.958 52.55,33.063c0.066,0 0.137,0 0.204,0c6.433,0 12.191,-2.355 16.667,-6.834c5.987,-5.983 9.116,-13.5 9.166,-21.545c2.617,0.57 5.338,0.941 8.117,0.941c7.071,0 14.429,-2.208 20.696,-8.483c6.183,-6.183 9.475,-13.234 9.808,-20.725c2.708,0.908 5.537,1.625 8.571,1.775c0.471,0.025 0.942,0.037 1.404,0.037c7.917,0 15.421,-3.337 21.783,-9.708c5.396,-5.383 8.129,-12.017 7.909,-19.162c-0.063,-1.963 -0.375,-3.905 -0.842,-5.838c2.054,0.396 4.158,0.654 6.321,0.683c0.158,0 0.321,0 0.483,0c9.188,0 17.471,-3.621 24.625,-10.775c5.896,-5.891 8.867,-13.008 8.821,-21.137c-0.125,-22.292 -24.05,-45.708 -34.271,-55.704Z" style="fill:#fff;fill-rule:nonzero;"/><path d="M404.396,730.675c-8.475,21.125 -35.954,48.087 -48.996,48.087c-1.654,0 -2.421,-0.495 -3.058,-1.229c-5.996,-6.887 4.025,-25.896 24.366,-46.204c9.121,-9.112 18.121,-14.554 24.054,-14.554c2.025,0 3.584,0.625 5.063,2.05c1.163,1.104 1.204,5.288 -1.429,11.85Zm-98.888,24.858c-9.816,-9.808 8.192,-36.612 30.384,-58.829c3.329,-3.329 7.733,-7.725 12.512,-11.933c0.2,-0.196 0.454,-0.3 0.638,-0.529c0.025,-0.029 0.045,-0.055 0.071,-0.088c7.879,-6.85 16.683,-13.033 23.399,-13.033c2.338,0 4.188,0.808 5.996,2.625c2.896,2.912 4.238,6.05 4.225,9.896c-0.058,15.35 -21.312,36.412 -30.387,45.408l-2.196,2.171c-1.108,1.116 -2.312,2.354 -3.604,3.675c-8.704,8.937 -23.275,23.892 -33.896,23.892c-2.654,-0.009 -4.925,-1.038 -7.142,-3.255Zm-36.05,-29.954c-9.116,-9.116 7.946,-34.387 28.9,-55.375c20.963,-20.929 33.817,-27.021 41.692,-19.733c2.971,2.746 9.063,8.433 -2.521,23.046c-4.3,3.825 -8.554,7.929 -12.721,12.1c-9.462,9.466 -21.112,22.541 -28.975,36.05c-6.575,5.529 -17.858,12.42 -26.375,3.912Zm-28.762,-32.446c-3.996,-3.987 0.496,-13.141 3.529,-18.246c5.896,-9.92 14.979,-19.599 19.858,-24.483l2.013,-2.017c6.604,-6.658 17.679,-17.791 24.375,-17.791c0.846,0 1.891,0.166 3.233,1.446c1.388,1.316 2.013,2.858 2.038,5c0.121,9.65 -11.588,25.72 -23.242,37.375l-2.792,2.845c-6.075,6.234 -17.387,17.846 -24.8,17.842c-1.045,0 -2.47,-0.221 -4.212,-1.971Zm160.066,7.967c-2.395,0 -4.779,0.437 -7.149,1.046c2.895,-6.038 4.77,-12.271 4.795,-18.454c0.025,-8.05 -2.929,-15.117 -8.783,-21c-4.721,-4.742 -10.633,-7.25 -17.113,-7.25c-4.162,0 -8.341,1.016 -12.504,2.75c-0.233,-8.929 -5.121,-15.359 -9.316,-19.234c-12.492,-11.55 -26.921,-7.775 -39.38,-0.054c0.046,-0.687 0.113,-1.375 0.109,-2.054c-0.075,-6.346 -2.467,-11.937 -6.904,-16.158c-3.971,-3.78 -8.83,-5.775 -14.046,-5.775c-13.225,0 -25.579,12.433 -35.496,22.425l-1.971,1.975c-5.4,5.404 -15.483,16.171 -22.254,27.562c-11.862,19.946 -7.167,31.317 -1.142,37.342c4.296,4.287 9.588,6.558 15.3,6.558c2.634,0 5.23,-0.6 7.784,-1.442c-2.817,10.109 -1.921,19.721 5.687,27.325c5.75,5.75 12.692,8.6 20.171,8.592c2.867,0 5.821,-0.471 8.804,-1.304c-1.129,8.379 0.625,16.229 7.071,22.667c5.2,5.204 11.333,7.837 18.225,7.845c7.904,0 15.704,-3.637 22.917,-8.666c-1.679,7.946 -0.659,15.583 4.941,22.029c3.763,4.325 8.909,6.617 14.892,6.617c22.996,0 54.396,-35.142 63.546,-57.929c6.433,-16.026 2.312,-24.63 -2.279,-29.017c-4.375,-4.192 -9.875,-6.396 -15.905,-6.396Z" style="fill:#241f1f;fill-rule:nonzero;"/><path d="M356.071,550.508c0,-34.179 53.7,-73.137 79.517,-91.854c5.591,-4.067 10.012,-7.262 12.966,-9.712c17.721,-14.667 54.967,-23.421 99.638,-23.421c34.475,0 62.954,15.9 80.766,29.233c22.35,16.754 92.942,17.021 100.713,17.033c4.329,-0.012 7.829,-3.52 7.816,-7.849c-0.012,-4.326 -3.516,-7.825 -7.837,-7.825c-0.312,-0.005 -0.496,0 -0.746,0c-28.15,0 -76.983,-3.738 -90.546,-13.909c-19.725,-14.767 -51.379,-32.362 -90.166,-32.362c-48.93,0 -88.884,9.845 -109.625,27.021c-2.579,2.125 -7.029,5.362 -12.192,9.099c-29.967,21.738 -85.671,62.146 -85.979,104.196c-0.358,4.434 -2.904,42.746 14.404,61.7c6.562,7.192 14.983,10.834 25.017,10.834c8.837,0 15.97,-2.788 21.221,-8.3c11.287,-11.85 10.262,-32.859 9.449,-49.734c-0.32,-6.57 -0.758,-15.562 0.088,-17.516c9.133,-11.746 28.912,-29.138 42.363,-29.138c4.324,0 7.837,-3.512 7.837,-7.841c0,-4.325 -3.513,-7.838 -7.837,-7.838c-22.463,0 -47.138,25.404 -54.734,35.192c-4.454,5.712 -4.004,15.016 -3.375,27.904c0.638,13.154 1.513,31.175 -5.141,38.154c-1.405,1.475 -3.963,3.442 -9.871,3.442c-5.592,0 -9.863,-1.817 -13.43,-5.713c-11.074,-12.108 -11.225,-40.262 -10.345,-50.096c0.016,-0.229 0.029,-0.466 0.029,-0.7Z" style="fill:#241f1f;fill-rule:nonzero;"/></g></svg>